<svg xmlns="http://www.w3.org/2000/svg" xmlns:xlink="http://www.w3.org/1999/xlink" version="1.1" width="60" height="60" viewBox="0 0 256 256" xml:space="preserve">

<defs>
</defs>
<g style="stroke: none; stroke-width: 0; stroke-dasharray: none; stroke-linecap: butt; stroke-linejoin: miter; stroke-miterlimit: 10; fill: none; fill-rule: nonzero; opacity: 1;" transform="translate(1.4065934065934016 1.4065934065934016) scale(2.81 2.81)" >
	<path d="M 80.376 61.144 v 2.448 c 0 6.112 -5.001 11.112 -11.112 11.112 H 20.736 c -6.112 0 -11.112 -5.001 -11.112 -11.112 v -2.448" style="stroke: none; stroke-width: 1; stroke-dasharray: none; stroke-linecap: butt; stroke-linejoin: miter; stroke-miterlimit: 10; fill: rgb(253,187,41); fill-rule: nonzero; opacity: 1;" transform=" matrix(1 0 0 1 0 0) " stroke-linecap="round" />
	<path d="M 80.376 37.918 v -4.729 c 0 -9.841 -8.052 -17.893 -17.893 -17.893 H 27.516 c -9.841 0 -17.893 8.052 -17.893 17.893 v 4.729 H 80.376 z" style="stroke: none; stroke-width: 1; stroke-dasharray: none; stroke-linecap: butt; stroke-linejoin: miter; stroke-miterlimit: 10; fill: rgb(253,187,41); fill-rule: nonzero; opacity: 1;" transform=" matrix(1 0 0 1 0 0) " stroke-linecap="round" />
	<path d="M 58.716 61.144 H 8.593 c -2.516 0 -4.555 -2.04 -4.555 -4.555 v 0 c 0 -2.516 2.04 -4.555 4.555 -4.555 h 72.814 c 2.516 0 4.555 2.04 4.555 4.555 v 0 c 0 2.516 -2.04 4.555 -4.555 4.555 H 67.819" style="stroke: none; stroke-width: 1; stroke-dasharray: none; stroke-linecap: butt; stroke-linejoin: miter; stroke-miterlimit: 10; fill: rgb(180,64,49); fill-rule: nonzero; opacity: 1;" transform=" matrix(1 0 0 1 0 0) " stroke-linecap="round" />
	<path d="M 85.693 45.909 l -6.21 -4.982 H 10.472 l -6.434 4.982 l 0 1.546 c 0 2.516 2.04 4.555 4.555 4.555 h 41.02 v 1.301 c 0 2.514 2.038 4.551 4.551 4.551 s 4.551 -2.038 4.551 -4.551 v 12.172 c 0 2.514 2.038 4.551 4.551 4.551 c 2.514 0 4.551 -2.038 4.551 -4.551 V 52.01 h 13.588 c 2.516 0 4.555 -2.039 4.555 -4.555 C 85.962 46.912 85.867 46.392 85.693 45.909 z" style="stroke: none; stroke-width: 1; stroke-dasharray: none; stroke-linecap: butt; stroke-linejoin: miter; stroke-miterlimit: 10; fill: rgb(249,209,83); fill-rule: nonzero; opacity: 1;" transform=" matrix(1 0 0 1 0 0) " stroke-linecap="round" />
	<path d="M 80.376 37.918 L 89 44.361 c -4.19 2.671 -8.381 2.671 -12.571 0 s -8.381 -2.671 -12.571 0 s -8.381 2.671 -12.571 0 s -8.381 -2.671 -12.571 0 s -8.381 2.671 -12.571 0 s -8.381 -2.671 -12.571 0 S 5.19 47.032 1 44.361 l 8.624 -6.444 H 80.376 z" style="stroke: none; stroke-width: 1; stroke-dasharray: none; stroke-linecap: butt; stroke-linejoin: miter; stroke-miterlimit: 10; fill: rgb(109,204,130); fill-rule: nonzero; opacity: 1;" transform=" matrix(1 0 0 1 0 0) " stroke-linecap="round" />
	<path d="M 69.264 75.704 H 20.736 c -6.679 0 -12.112 -5.434 -12.112 -12.112 v -2.448 c 0 -0.553 0.448 -1 1 -1 s 1 0.447 1 1 v 2.448 c 0 5.576 4.536 10.112 10.112 10.112 h 48.528 c 5.576 0 10.112 -4.536 10.112 -10.112 v -2.448 c 0 -0.553 0.447 -1 1 -1 s 1 0.447 1 1 v 2.448 C 81.376 70.271 75.942 75.704 69.264 75.704 z" style="stroke: none; stroke-width: 1; stroke-dasharray: none; stroke-linecap: butt; stroke-linejoin: miter; stroke-miterlimit: 10; fill: rgb(0,0,0); fill-rule: nonzero; opacity: 1;" transform=" matrix(1 0 0 1 0 0) " stroke-linecap="round" />
	<path d="M 63.268 71.035 c -3.062 0 -5.552 -2.49 -5.552 -5.552 v -7.908 c -0.963 0.804 -2.201 1.288 -3.551 1.288 c -3.062 0 -5.552 -2.49 -5.552 -5.552 v -0.301 H 8.593 c -3.063 0 -5.555 -2.492 -5.555 -5.556 v -1.546 c 0 -0.552 0.448 -1 1 -1 s 1 0.448 1 1 v 1.546 c 0 1.961 1.595 3.556 3.555 3.556 h 41.021 c 0.553 0 1 0.447 1 1 v 1.301 c 0 1.958 1.594 3.552 3.552 3.552 s 3.551 -1.594 3.551 -3.552 c 0 -0.553 0.447 -1 1 -1 s 1 0.447 1 1 v 12.172 c 0 1.958 1.594 3.552 3.552 3.552 s 3.552 -1.594 3.552 -3.552 V 52.011 c 0 -0.553 0.447 -1 1 -1 h 13.588 c 1.961 0 3.556 -1.595 3.556 -3.556 c 0 -0.413 -0.07 -0.819 -0.21 -1.207 c -0.188 -0.52 0.082 -1.092 0.602 -1.28 c 0.521 -0.186 1.093 0.083 1.279 0.602 c 0.219 0.605 0.329 1.239 0.329 1.885 c 0 3.063 -2.492 5.556 -5.556 5.556 H 68.819 v 12.473 C 68.819 68.545 66.329 71.035 63.268 71.035 z" style="stroke: none; stroke-width: 1; stroke-dasharray: none; stroke-linecap: butt; stroke-linejoin: miter; stroke-miterlimit: 10; fill: rgb(0,0,0); fill-rule: nonzero; opacity: 1;" transform=" matrix(1 0 0 1 0 0) " stroke-linecap="round" />
	<path d="M 80.376 38.917 H 9.624 c -0.552 0 -1 -0.448 -1 -1 v -4.729 c 0 -10.417 8.475 -18.893 18.893 -18.893 h 34.967 c 10.417 0 18.893 8.475 18.893 18.893 v 4.729 C 81.376 38.47 80.929 38.917 80.376 38.917 z M 10.624 36.917 h 68.752 v -3.729 c 0 -9.314 -7.578 -16.893 -16.893 -16.893 H 27.516 c -9.314 0 -16.893 7.578 -16.893 16.893 V 36.917 z" style="stroke: none; stroke-width: 1; stroke-dasharray: none; stroke-linecap: butt; stroke-linejoin: miter; stroke-miterlimit: 10; fill: rgb(0,0,0); fill-rule: nonzero; opacity: 1;" transform=" matrix(1 0 0 1 0 0) " stroke-linecap="round" />
	<path d="M 45 29.395 c -0.552 0 -1 -0.448 -1 -1 v -2.017 c 0 -0.552 0.448 -1 1 -1 s 1 0.448 1 1 v 2.017 C 46 28.947 45.552 29.395 45 29.395 z" style="stroke: none; stroke-width: 1; stroke-dasharray: none; stroke-linecap: butt; stroke-linejoin: miter; stroke-miterlimit: 10; fill: rgb(0,0,0); fill-rule: nonzero; opacity: 1;" transform=" matrix(1 0 0 1 0 0) " stroke-linecap="round" />
	<path d="M 57.033 25.785 c -0.553 0 -1 -0.448 -1 -1 v -2.017 c 0 -0.552 0.447 -1 1 -1 s 1 0.448 1 1 v 2.017 C 58.033 25.337 57.586 25.785 57.033 25.785 z" style="stroke: none; stroke-width: 1; stroke-dasharray: none; stroke-linecap: butt; stroke-linejoin: miter; stroke-miterlimit: 10; fill: rgb(0,0,0); fill-rule: nonzero; opacity: 1;" transform=" matrix(1 0 0 1 0 0) " stroke-linecap="round" />
	<path d="M 69.065 29.395 c -0.553 0 -1 -0.448 -1 -1 v -2.017 c 0 -0.552 0.447 -1 1 -1 s 1 0.448 1 1 v 2.017 C 70.065 28.947 69.618 29.395 69.065 29.395 z" style="stroke: none; stroke-width: 1; stroke-dasharray: none; stroke-linecap: butt; stroke-linejoin: miter; stroke-miterlimit: 10; fill: rgb(0,0,0); fill-rule: nonzero; opacity: 1;" transform=" matrix(1 0 0 1 0 0) " stroke-linecap="round" />
	<path d="M 32.967 25.785 c -0.552 0 -1 -0.448 -1 -1 v -2.017 c 0 -0.552 0.448 -1 1 -1 s 1 0.448 1 1 v 2.017 C 33.967 25.337 33.52 25.785 32.967 25.785 z" style="stroke: none; stroke-width: 1; stroke-dasharray: none; stroke-linecap: butt; stroke-linejoin: miter; stroke-miterlimit: 10; fill: rgb(0,0,0); fill-rule: nonzero; opacity: 1;" transform=" matrix(1 0 0 1 0 0) " stroke-linecap="round" />
	<path d="M 20.935 29.395 c -0.552 0 -1 -0.448 -1 -1 v -2.017 c 0 -0.552 0.448 -1 1 -1 s 1 0.448 1 1 v 2.017 C 21.935 28.947 21.487 29.395 20.935 29.395 z" style="stroke: none; stroke-width: 1; stroke-dasharray: none; stroke-linecap: butt; stroke-linejoin: miter; stroke-miterlimit: 10; fill: rgb(0,0,0); fill-rule: nonzero; opacity: 1;" transform=" matrix(1 0 0 1 0 0) " stroke-linecap="round" />
	<path d="M 82.714 47.369 c -2.279 0 -4.559 -0.722 -6.822 -2.165 c -3.87 -2.465 -7.629 -2.463 -11.497 0 c -4.527 2.887 -9.118 2.886 -13.646 0 c -3.868 -2.465 -7.628 -2.466 -11.497 0 c -4.527 2.885 -9.119 2.885 -13.646 0 c -3.868 -2.465 -7.629 -2.465 -11.497 0 c -4.527 2.885 -9.119 2.885 -13.646 0 C 0.186 45.028 0.013 44.727 0 44.398 s 0.138 -0.642 0.401 -0.838 l 8.624 -6.444 c 0.442 -0.33 1.068 -0.24 1.4 0.203 c 0.331 0.442 0.24 1.069 -0.203 1.4 l -7.4 5.529 c 3.42 1.705 6.773 1.461 10.211 -0.73 c 4.527 -2.886 9.119 -2.886 13.647 0 c 3.867 2.465 7.628 2.465 11.496 0 c 4.528 -2.886 9.119 -2.886 13.646 0 c 3.87 2.466 7.629 2.464 11.497 0 c 4.526 -2.885 9.117 -2.886 13.646 0 c 3.438 2.191 6.792 2.435 10.212 0.73 l -7.4 -5.529 c -0.442 -0.331 -0.533 -0.958 -0.202 -1.4 c 0.33 -0.442 0.957 -0.533 1.399 -0.203 l 8.624 6.444 c 0.263 0.197 0.413 0.51 0.4 0.838 c -0.012 0.328 -0.185 0.629 -0.462 0.806 C 87.273 46.647 84.994 47.369 82.714 47.369 z" style="stroke: none; stroke-width: 1; stroke-dasharray: none; stroke-linecap: butt; stroke-linejoin: miter; stroke-miterlimit: 10; fill: rgb(0,0,0); fill-rule: nonzero; opacity: 1;" transform=" matrix(1 0 0 1 0 0) " stroke-linecap="round" />
	<path d="M 58.716 62.144 H 8.593 c -3.063 0 -5.555 -2.492 -5.555 -5.555 c 0 -3.063 2.492 -5.556 5.555 -5.556 c 0.552 0 1 0.447 1 1 s -0.448 1 -1 1 c -1.96 0 -3.555 1.595 -3.555 3.556 c 0 1.96 1.595 3.555 3.555 3.555 h 50.123 c 0.553 0 1 0.447 1 1 S 59.269 62.144 58.716 62.144 z" style="stroke: none; stroke-width: 1; stroke-dasharray: none; stroke-linecap: butt; stroke-linejoin: miter; stroke-miterlimit: 10; fill: rgb(0,0,0); fill-rule: nonzero; opacity: 1;" transform=" matrix(1 0 0 1 0 0) " stroke-linecap="round" />
	<path d="M 81.407 62.144 H 67.819 c -0.553 0 -1 -0.447 -1 -1 s 0.447 -1 1 -1 h 13.588 c 1.961 0 3.556 -1.595 3.556 -3.555 c 0 -1.961 -1.595 -3.556 -3.556 -3.556 c -0.553 0 -1 -0.447 -1 -1 s 0.447 -1 1 -1 c 3.063 0 5.556 2.492 5.556 5.556 C 86.963 59.651 84.471 62.144 81.407 62.144 z" style="stroke: none; stroke-width: 1; stroke-dasharray: none; stroke-linecap: butt; stroke-linejoin: miter; stroke-miterlimit: 10; fill: rgb(0,0,0); fill-rule: nonzero; opacity: 1;" transform=" matrix(1 0 0 1 0 0) " stroke-linecap="round" />
</g>
</svg>